<?xml version="1.0" standalone="no"?>
<!DOCTYPE svg PUBLIC "-//W3C//DTD SVG 20010904//EN"
 "http://www.w3.org/TR/2001/REC-SVG-20010904/DTD/svg10.dtd">
<svg version="1.0" xmlns="http://www.w3.org/2000/svg"
 width="259.000000pt" height="67.000000pt" viewBox="0 0 259.000000 67.000000"
 preserveAspectRatio="xMidYMid meet">

<g transform="translate(0.000000,67.000000) scale(0.100000,-0.100000)"
fill="#000000" stroke="none">
<path d="M220 548 c-88 -46 -136 -145 -112 -235 35 -130 170 -197 290 -143 51
23 62 45 35 72 -20 19 -20 19 -54 -1 -68 -41 -154 -15 -192 59 -62 119 78 249
192 179 34 -20 34 -20 54 -1 26 27 17 45 -35 71 -58 28 -122 27 -178 -1z"/>
<path d="M480 365 l0 -205 35 0 35 0 0 205 0 205 -35 0 -35 0 0 -205z"/>
<path d="M590 535 c0 -33 2 -35 35 -35 33 0 35 2 35 35 0 33 -2 35 -35 35 -33
0 -35 -2 -35 -35z"/>
<path d="M1160 375 c-47 -108 -86 -200 -88 -205 -2 -6 13 -10 32 -10 32 0 39
5 53 35 l17 35 83 0 83 0 -17 35 c-16 33 -20 35 -65 35 -26 0 -48 4 -48 9 0 5
17 46 38 91 l38 83 70 -159 70 -159 38 -3 c23 -2 37 1 35 7 -2 6 -42 98 -89
206 l-85 195 -40 0 -40 -1 -85 -194z"/>
<path d="M1730 504 c0 -59 -2 -65 -17 -59 -42 17 -98 16 -133 -3 -40 -21 -80
-90 -80 -137 0 -77 73 -155 145 -155 44 0 59 13 51 44 -5 19 -13 26 -31 26
-51 0 -95 39 -95 85 0 27 22 63 47 74 35 16 57 14 86 -9 24 -19 26 -27 29
-113 l3 -92 33 -3 32 -3 0 205 0 206 -35 0 -35 0 0 -66z"/>
<path d="M2020 535 c0 -33 2 -35 35 -35 33 0 35 2 35 35 0 33 -2 35 -35 35
-33 0 -35 -2 -35 -35z"/>
<path d="M2130 365 l0 -205 35 0 35 0 0 95 c0 105 14 135 65 135 51 0 65 -30
65 -135 l0 -95 35 0 35 0 0 104 c0 91 -3 107 -23 137 -38 57 -108 76 -155 43
l-22 -15 0 70 0 71 -35 0 -35 0 0 -205z"/>
<path d="M771 438 c-57 -38 -76 -73 -76 -133 0 -60 19 -95 76 -133 27 -19 43
-23 81 -19 26 2 59 12 74 22 l26 17 -25 25 c-20 21 -28 23 -45 14 -34 -18 -62
-13 -93 18 -38 38 -38 74 0 112 31 31 59 36 93 18 17 -9 25 -7 45 14 l25 25
-26 17 c-15 10 -48 20 -74 22 -38 4 -54 0 -81 -19z"/>
<path d="M1945 451 c-11 -4 -39 -6 -62 -3 l-43 5 0 -147 0 -146 35 0 35 0 0
90 c0 83 2 93 25 115 13 14 31 25 40 25 11 0 15 10 15 35 0 36 -8 40 -45 26z"/>
<path d="M590 305 l0 -145 35 0 35 0 0 145 0 145 -35 0 -35 0 0 -145z"/>
<path d="M2020 305 l0 -145 35 0 35 0 0 145 0 145 -35 0 -35 0 0 -145z"/>
</g>
</svg>
